# xmcd
#
# Track frame offsets:
#	150
#	8000
#	16820
#	25375
#	33387
#	41492
#	50320
#	56905
#	63277
#	66510
#	74607
#	78185
#	84237
#	92817
#	100665
#
# Disc length: 1428 seconds
#
# Revision: 1
# Processed by: cddbd v1.5.1PL0 Copyright (c) Steve Scherf et al.
# Submitted via: CDex 1.50Beta5
#
DISCID=ba05920f
DTITLE=速水けんたろう - NHK おかあさんといっしょ ベストセレクション
DYEAR=1900
DGENRE=
TTITLE0=あつまれ!ファンファンファン
TTITLE1=ホ!ホ!ホ!
TTITLE2=バナナのおやこ
TTITLE3=ぞうさんのぼうし
TTITLE4=おべんとうばこのうた
TTITLE5=そうだったらいいのにな
TTITLE6=とんとんともだち
TTITLE7=かわいいかくれんぼ
TTITLE8=おつかい ありさん
TTITLE9=とんでったバナナ
TTITLE10=ことりのうた
TTITLE11=とうめいにんげんなんだけど
TTITLE12=森のファミリーレストラン
TTITLE13=五ひきのこぶたとチャールストン
TTITLE14=ドロップスのうた
EXTD=
EXTT0=
EXTT1=
EXTT2=
EXTT3=
EXTT4=
EXTT5=
EXTT6=
EXTT7=
EXTT8=
EXTT9=
EXTT10=
EXTT11=
EXTT12=
EXTT13=
EXTT14=
PLAYORDER=
